<svg width="334" height="65" viewBox="0 0 334 65" fill="none" xmlns="http://www.w3.org/2000/svg">
<path d="M79.5 22.6074L67.5 22.6074" stroke="#5EA7C7" stroke-linecap="square"/>
<g opacity="0.8">
<circle cx="86" cy="22.6074" r="3" fill="#5EA7C7"/>
<circle cx="97" cy="22.6074" r="6" fill="#5EA7C7"/>
</g>
<path d="M133.232 15.6445H130.93L130.895 32.8184L127.695 31.4473V28.9336C125.797 31.3828 123.934 32.6074 122.105 32.6074C120.945 32.6074 119.68 32.1211 118.309 31.1484C117.137 30.3164 116.164 29.3438 115.391 28.2305C114.477 26.918 114.025 25.6406 114.037 24.3984C114.049 23.2617 114.676 21.9434 115.918 20.4434C117.312 18.7559 118.994 17.9121 120.963 17.9121C122.217 17.9121 123.477 18.4453 124.742 19.5117C125.129 19.8281 126.113 20.8477 127.695 22.5703V15.6445H112.648V13.5352H127.695C127.695 11.1094 127.49 9.21094 127.08 7.83984C126.471 5.80078 125.111 3.375 123.002 0.5625C122.955 0.539063 122.932 0.445312 122.932 0.28125C122.932 0.140625 122.967 0.046875 123.037 0H126.395C129.418 3.33984 130.93 7.85156 130.93 13.5352H133.232V15.6445ZM126.852 23.6426C126.852 22.7285 126.354 21.9434 125.357 21.2871C124.467 20.7012 123.541 20.4082 122.58 20.4082C121.877 20.4082 120.998 20.7363 119.943 21.3926C117.646 22.8223 116.498 24.5098 116.498 26.4551C116.498 27.5215 116.785 28.4473 117.359 29.2324C117.992 30.1113 118.818 30.5508 119.838 30.5508C120.893 30.5508 122.018 30.0703 123.213 29.1094C124.045 28.4414 124.818 27.6211 125.533 26.6484C126.412 25.4531 126.852 24.4512 126.852 23.6426ZM152.27 15.6445H138.084V20.9355C139.361 19.541 140.545 18.6445 141.635 18.2461C142.244 18.0234 142.93 17.9121 143.691 17.9121C146.551 17.9121 148.689 19.3184 150.107 22.1309C150.729 23.3613 151.039 24.5742 151.039 25.7695C151.039 27.9492 150.143 29.918 148.35 31.6758C147.752 32.2617 147.307 32.666 147.014 32.8887L144.131 31.166C144.857 30.4043 145.684 29.4668 146.609 28.3535C147.652 27.0996 148.18 25.5176 148.191 23.6074C148.203 22.4707 147.945 21.5215 147.418 20.7598C146.82 19.8691 145.977 19.4355 144.887 19.459C143.879 19.4824 142.801 19.8633 141.652 20.6016C140.621 21.2578 139.766 22.043 139.086 22.957C138.348 23.9414 137.979 24.8906 137.979 25.8047V32.7832L134.691 31.0254V15.6445H132.758V13.5352H134.691C134.691 10.0898 133.795 7.14844 132.002 4.71094C130.924 3.24609 129.928 2.21484 129.014 1.61719L132.564 1.58203C134.533 2.66016 136.098 4.98633 137.258 8.56055C137.809 10.2598 138.084 11.918 138.084 13.5352H152.27V15.6445ZM169.268 15.6445H157.561V18.457C157.607 18.457 157.654 18.4805 157.701 18.5273C157.748 18.5742 157.789 18.5977 157.824 18.5977C157.73 18.5977 157.678 18.5918 157.666 18.5801C157.666 18.5215 158.539 18.334 160.285 18.0176C160.93 17.9004 161.568 17.8418 162.201 17.8418C164.838 17.8418 166.531 18.5801 167.281 20.0566C167.785 21.041 168.037 23.0273 168.037 26.0156V32.7832C167.791 32.6895 166.859 32.3086 165.242 31.6406C165.242 31.2656 165.166 31.0254 165.014 30.9199C164.393 31.2832 163.883 31.5586 163.484 31.7461C162.219 32.3438 160.748 32.6426 159.072 32.6426C156.764 32.6426 154.982 31.916 153.729 30.4629C153.119 29.7598 152.814 28.9746 152.814 28.1074C152.814 27.1348 153.295 26.168 154.256 25.207C156.119 23.3438 158.434 22.4121 161.199 22.4121C162.875 22.4121 164.223 22.7988 165.242 23.5723V21.9551C164.727 21.2988 164.223 20.8594 163.73 20.6367C163.25 20.4141 162.588 20.3145 161.744 20.3379C159.857 20.373 158.129 20.7188 156.559 21.375C155.855 21.668 155.17 21.9316 154.502 22.166V20.8652C154.654 20.7363 154.877 20.543 155.17 20.2852C155.217 20.2266 155.246 20.1914 155.258 20.1797V15.6445H151.654V13.5352H169.268V15.6445ZM165.242 26.7715C165.242 26.2559 164.627 25.793 163.396 25.3828C162.377 25.043 161.527 24.873 160.848 24.873C158.375 24.873 156.395 25.7637 154.906 27.5449C154.309 28.2598 154.01 28.8457 154.01 29.3027C154.256 30.1582 155.223 30.5859 156.91 30.5859C159.09 30.5859 161.082 30.041 162.887 28.9512C164.457 28.002 165.242 27.2754 165.242 26.7715ZM186.389 15.6445H174.682V18.457C174.729 18.457 174.775 18.4805 174.822 18.5273C174.869 18.5742 174.91 18.5977 174.945 18.5977C174.852 18.5977 174.799 18.5918 174.787 18.5801C174.787 18.5215 175.66 18.334 177.406 18.0176C178.051 17.9004 178.689 17.8418 179.322 17.8418C181.959 17.8418 183.652 18.5801 184.402 20.0566C184.906 21.041 185.158 23.0273 185.158 26.0156V32.7832C184.912 32.6895 183.98 32.3086 182.363 31.6406C182.363 31.2656 182.287 31.0254 182.135 30.9199C181.514 31.2832 181.004 31.5586 180.605 31.7461C179.34 32.3438 177.869 32.6426 176.193 32.6426C173.885 32.6426 172.104 31.916 170.85 30.4629C170.24 29.7598 169.936 28.9746 169.936 28.1074C169.936 27.1348 170.416 26.168 171.377 25.207C173.24 23.3438 175.555 22.4121 178.32 22.4121C179.996 22.4121 181.344 22.7988 182.363 23.5723V21.9551C181.848 21.2988 181.344 20.8594 180.852 20.6367C180.371 20.4141 179.709 20.3145 178.865 20.3379C176.979 20.373 175.25 20.7188 173.68 21.375C172.977 21.668 172.291 21.9316 171.623 22.166V20.8652C171.775 20.7363 171.998 20.543 172.291 20.2852C172.338 20.2266 172.367 20.1914 172.379 20.1797V15.6445H168.775V13.5352H186.389V15.6445ZM182.363 26.7715C182.363 26.2559 181.748 25.793 180.518 25.3828C179.498 25.043 178.648 24.873 177.969 24.873C175.496 24.873 173.516 25.7637 172.027 27.5449C171.43 28.2598 171.131 28.8457 171.131 29.3027C171.377 30.1582 172.344 30.5859 174.031 30.5859C176.211 30.5859 178.203 30.041 180.008 28.9512C181.578 28.002 182.363 27.2754 182.363 26.7715ZM204.617 35.4551C204.617 37.6348 203.562 38.7246 201.453 38.7246C200.516 38.7246 199.156 38.2793 197.375 37.3887C195.406 36.4043 193.754 35.9121 192.418 35.9121C189.547 35.9121 186.84 37.043 184.297 39.3047C183.078 40.3945 182.123 41.6777 181.432 43.1543C181.385 42.9668 181.361 42.668 181.361 42.2578C181.361 40.8516 181.783 39.4512 182.627 38.0566C183.4 36.7676 184.402 35.6895 185.633 34.8223C187.016 33.8496 188.592 33.3633 190.361 33.3633C191.58 33.3633 192.641 33.5684 193.543 33.9785C194.023 34.2012 194.949 34.7754 196.32 35.7012C197.492 36.498 198.389 36.8965 199.01 36.8965C200.557 36.8965 201.787 36.2578 202.701 34.9805C203.1 34.4297 203.299 33.8906 203.299 33.3633C203.299 32.4375 203.018 31.6641 202.455 31.043C201.893 30.4102 201.154 30.0938 200.24 30.0938C199.396 30.0938 198.008 30.5215 196.074 31.377C194.141 32.2207 192.752 32.6426 191.908 32.6426C191.287 32.6426 190.537 32.332 189.658 31.7109C187.83 30.4102 186.916 29.1973 186.916 28.0723C186.916 27.4512 187.262 26.8828 187.953 26.3672C188.574 25.8867 189.213 25.6172 189.869 25.5586L189.904 25.3652L189.043 24.1523C188.562 23.4727 188.322 22.7402 188.322 21.9551C188.322 19.2598 190.525 17.9121 194.932 17.9121C195.061 17.8887 195.148 17.7832 195.195 17.5957V15.6445H186.09V13.5352H204.16V15.6445H197.92V18.5977C197.92 19.1484 198.078 19.4883 198.395 19.6172C198.594 19.6172 198.846 19.4355 199.15 19.0723L199.818 18.2637C199.994 18.0879 200.311 17.9707 200.768 17.9121C201.506 17.9121 202.209 18.334 202.877 19.1777C203.182 19.5645 203.381 19.9512 203.475 20.3379L201.629 22.4473C201.605 21.9082 201.494 21.416 201.295 20.9707C201.025 20.373 200.674 20.0742 200.24 20.0742C200.076 20.0742 199.883 20.1504 199.66 20.3027C199.438 20.4551 199.326 20.6074 199.326 20.7598C199.326 20.9355 199.402 21.1465 199.555 21.3926C199.73 21.6855 199.83 21.8672 199.854 21.9375C199.936 22.207 199.977 22.5469 199.977 22.957C199.977 24.5391 199.332 25.6113 198.043 26.1738C197.188 26.5488 195.84 26.7363 194 26.7363C191.656 26.7363 190.057 27.2578 189.201 28.3008C188.861 28.7109 188.697 29.0449 188.709 29.3027C188.721 29.6543 188.896 29.9648 189.236 30.2344C189.576 30.4922 189.928 30.6211 190.291 30.6211C190.959 30.6211 192.242 30.1582 194.141 29.2324C196.379 28.1426 198.184 27.5859 199.555 27.5625C200.809 27.5391 201.863 28.0957 202.719 29.2324C203.41 30.1348 203.908 31.2832 204.213 32.6777C204.482 33.9082 204.617 34.834 204.617 35.4551ZM197.779 21.3398C197.779 19.9219 197.023 19.2129 195.512 19.2129C194.293 19.2129 193.139 19.6406 192.049 20.4961C190.877 21.4102 190.291 22.459 190.291 23.6426C190.291 24.2871 190.537 24.8379 191.029 25.2949C191.533 25.752 192.107 25.9805 192.752 25.9805C193.42 25.9922 194.176 25.752 195.02 25.2598C195.77 24.8262 196.391 24.3223 196.883 23.748C197.48 23.0449 197.779 22.2422 197.779 21.3398ZM221.053 15.6445H209.346V18.457C209.393 18.457 209.439 18.4805 209.486 18.5273C209.533 18.5742 209.574 18.5977 209.609 18.5977C209.516 18.5977 209.463 18.5918 209.451 18.5801C209.451 18.5215 210.324 18.334 212.07 18.0176C212.715 17.9004 213.354 17.8418 213.986 17.8418C216.623 17.8418 218.316 18.5801 219.066 20.0566C219.57 21.041 219.822 23.0273 219.822 26.0156V32.7832C219.576 32.6895 218.645 32.3086 217.027 31.6406C217.027 31.2656 216.951 31.0254 216.799 30.9199C216.178 31.2832 215.668 31.5586 215.27 31.7461C214.004 32.3438 212.533 32.6426 210.857 32.6426C208.549 32.6426 206.768 31.916 205.514 30.4629C204.904 29.7598 204.6 28.9746 204.6 28.1074C204.6 27.1348 205.08 26.168 206.041 25.207C207.904 23.3438 210.219 22.4121 212.984 22.4121C214.66 22.4121 216.008 22.7988 217.027 23.5723V21.9551C216.512 21.2988 216.008 20.8594 215.516 20.6367C215.035 20.4141 214.373 20.3145 213.529 20.3379C211.643 20.373 209.914 20.7188 208.344 21.375C207.641 21.668 206.955 21.9316 206.287 22.166V20.8652C206.439 20.7363 206.662 20.543 206.955 20.2852C207.002 20.2266 207.031 20.1914 207.043 20.1797V15.6445H203.439V13.5352H221.053V15.6445ZM217.027 26.7715C217.027 26.2559 216.412 25.793 215.182 25.3828C214.162 25.043 213.312 24.873 212.633 24.873C210.16 24.873 208.18 25.7637 206.691 27.5449C206.094 28.2598 205.795 28.8457 205.795 29.3027C206.041 30.1582 207.008 30.5859 208.695 30.5859C210.875 30.5859 212.867 30.041 214.672 28.9512C216.242 28.002 217.027 27.2754 217.027 26.7715Z" fill="#5EA7C7"/>
<path d="M254.5 22.6074L266.5 22.6074" stroke="#5EA7C7" stroke-linecap="square"/>
<g opacity="0.8">
<circle cx="3" cy="3" r="3" transform="matrix(-1 0 0 1 251 19.6074)" fill="#5EA7C7"/>
<circle cx="6" cy="6" r="6" transform="matrix(-1 0 0 1 243 16.6074)" fill="#5EA7C7"/>
</g>
<path d="M54.2094 60.6074H49.4094V60.1274C49.7454 60.1114 50.1934 60.0634 50.4654 60.0154C50.9134 59.9354 51.0734 59.6154 51.0734 59.1514V50.8474H49.4414C49.0894 50.8474 48.8654 50.8954 48.5934 51.0874C48.0974 51.4714 47.6334 52.2074 47.2814 53.0554L46.8494 52.9434C47.0094 52.0954 47.2174 50.9594 47.2334 50.1274C47.7134 50.2234 48.4814 50.2874 49.0894 50.2874H55.2174C56.9774 50.2874 57.0734 50.1594 57.6174 49.6634H57.9854V54.3354C58.6414 53.6634 59.4414 53.3114 60.2254 53.3114C60.8174 53.3114 61.4094 53.5354 61.7454 53.8874C62.2894 54.4314 62.4494 55.0714 62.4494 55.8394V59.5034C62.4494 60.0154 62.5454 60.0794 63.4254 60.1274V60.6074H59.9214V60.1274C60.2414 60.0954 60.5294 60.0634 60.6734 60.0314C61.0574 59.9354 61.1214 59.8554 61.1214 58.3994V55.7434C61.1214 55.3434 61.0414 54.8954 60.6734 54.5274C60.3534 54.2074 59.9054 54.1594 59.6174 54.1594C59.2654 54.1594 58.6734 54.2394 58.3054 54.5914C58.0174 54.8794 57.9854 55.0074 57.9854 55.6154V59.5034C57.9854 59.7754 58.0174 59.9514 58.2734 60.0154C58.4814 60.0634 58.7214 60.0794 59.0894 60.1274V60.6074H55.6654V60.1274C55.9854 60.0954 56.1934 60.0634 56.3534 60.0314C56.5774 59.9834 56.6734 59.8394 56.6734 59.5514V51.9354C56.6734 51.6634 56.5454 51.3914 56.3214 51.1674C56.0334 50.8794 55.7774 50.8474 55.2654 50.8474H52.5614V59.1514C52.5614 59.7114 52.7854 59.9354 53.2014 60.0154C53.4414 60.0634 53.8734 60.1114 54.2094 60.1274V60.6074ZM70.3788 58.9274L70.6668 59.2314C70.0268 60.1914 69.0828 60.7994 67.7548 60.7994C66.6988 60.7994 65.7708 60.2874 65.2588 59.5674C64.7948 58.9114 64.5388 58.0954 64.5388 57.1514C64.5388 55.6954 65.2108 54.5434 66.0908 53.8874C66.6188 53.4874 67.3708 53.3114 67.9308 53.3114C69.8028 53.3114 70.6828 54.7514 70.6828 55.9674C70.6828 56.3514 70.6348 56.5754 70.5388 56.5914C70.1068 56.6394 67.3388 56.6394 66.0108 56.6394C65.9948 56.7674 65.9948 56.8794 65.9948 56.9114C65.9948 58.0314 66.2508 58.8154 66.7468 59.3434C67.2268 59.8394 67.7868 59.9834 68.3148 59.9834C68.9868 59.9834 69.7228 59.7434 70.3788 58.9274ZM66.0428 56.1594C67.3068 56.1594 68.2828 56.1434 68.8428 56.1114C69.2748 56.0794 69.3228 55.9034 69.3228 55.5354C69.3228 54.9114 68.9228 53.7914 67.7708 53.7914C66.9708 53.7914 66.1868 54.4954 66.0428 56.1594ZM79.5113 59.5354V59.9834C78.9353 60.6074 78.2633 60.7674 77.7833 60.7674C77.0313 60.7674 76.0233 60.4314 76.0233 58.8794V54.2874H75.0953V53.9354C75.7193 53.5994 76.5353 52.7834 77.1273 52.0154H77.5433C77.4633 52.4794 77.3993 53.1354 77.3833 53.5034H79.5273C79.5753 53.6794 79.5273 54.1114 79.4313 54.2874H77.3353V58.8314C77.3353 59.5674 77.7513 59.9354 78.3273 59.9354C78.7273 59.9354 79.0953 59.8554 79.5113 59.5354ZM83.6912 60.6074H80.2672V60.1274C81.0992 60.0474 81.2592 59.9674 81.2592 59.5194V51.4874C81.2592 50.9434 81.2272 50.7354 81.1952 50.6074C81.1472 50.4794 80.8752 50.2074 80.2512 50.0474V49.6474C80.9232 49.5994 82.0112 49.3754 82.6032 49.1514L82.6672 49.1834C82.6352 49.4554 82.5872 50.0794 82.5872 50.5594V54.3354C83.2432 53.6634 84.0272 53.3114 84.8112 53.3114C85.4192 53.3114 85.9952 53.5354 86.3472 53.8874C86.8752 54.4314 87.0352 55.0714 87.0352 55.8394V59.5034C87.0352 60.0154 87.1312 60.0794 88.0112 60.1274V60.6074H84.5072V60.1274C84.8432 60.0954 85.1312 60.0634 85.2752 60.0314C85.6592 59.9354 85.7232 59.8554 85.7232 58.3994V55.7434C85.7232 55.3434 85.6432 54.8954 85.2752 54.5274C84.9392 54.2074 84.5072 54.1594 84.2192 54.1594C83.8512 54.1594 83.2752 54.2394 82.8912 54.5914C82.6192 54.8794 82.5872 54.9914 82.5872 55.6794V59.5034C82.5872 60.0474 82.8272 60.0314 83.6912 60.1274V60.6074ZM92.6693 60.6074H88.8133V60.1274C89.8213 60.0634 89.9173 60.0154 89.9173 59.3914V55.8234C89.9173 55.0714 89.9173 54.8954 89.7573 54.7514C89.5973 54.6074 89.3093 54.4314 89.0053 54.3194V53.9994C89.5653 53.9034 90.7173 53.5354 91.1653 53.3114L91.2933 53.3754C91.2293 53.7594 91.1973 54.2234 91.1813 54.5434C91.7573 53.9674 92.5093 53.3114 93.3413 53.3114C93.9333 53.3114 94.2533 53.6474 94.2533 54.0794C94.2533 54.6874 93.7413 55.0394 93.4213 55.0394C93.3413 55.0394 93.1653 55.0074 92.9733 54.8154C92.7813 54.6074 92.6533 54.4954 92.5253 54.3994C92.4133 54.3194 92.3653 54.3034 92.2693 54.3034C92.0453 54.3034 91.6613 54.5914 91.4693 54.8154C91.2453 55.1354 91.2293 55.3594 91.2293 55.7114V59.3914C91.2293 60.0794 91.4853 60.0314 92.6693 60.1274V60.6074ZM100.738 58.9274L101.026 59.2314C100.386 60.1914 99.4422 60.7994 98.1142 60.7994C97.0582 60.7994 96.1302 60.2874 95.6182 59.5674C95.1542 58.9114 94.8982 58.0954 94.8982 57.1514C94.8982 55.6954 95.5702 54.5434 96.4502 53.8874C96.9782 53.4874 97.7302 53.3114 98.2902 53.3114C100.162 53.3114 101.042 54.7514 101.042 55.9674C101.042 56.3514 100.994 56.5754 100.898 56.5914C100.466 56.6394 97.6982 56.6394 96.3702 56.6394C96.3542 56.7674 96.3542 56.8794 96.3542 56.9114C96.3542 58.0314 96.6102 58.8154 97.1062 59.3434C97.5862 59.8394 98.1462 59.9834 98.6742 59.9834C99.3462 59.9834 100.082 59.7434 100.738 58.9274ZM96.4022 56.1594C97.6662 56.1594 98.6422 56.1434 99.2022 56.1114C99.6342 56.0794 99.6822 55.9034 99.6822 55.5354C99.6822 54.9114 99.2822 53.7914 98.1302 53.7914C97.3302 53.7914 96.5462 54.4954 96.4022 56.1594ZM108.512 59.6474V60.0794C108.016 60.6394 107.312 60.8474 107.024 60.8474C106.64 60.8474 106.24 60.6394 106.048 59.9034C105.312 60.4794 104.672 60.8474 104.016 60.8474C103.264 60.8474 102.496 60.1114 102.496 59.1034C102.496 58.3354 102.912 57.9834 103.632 57.6154C104.336 57.2634 104.928 57.0074 106.112 56.5114C106.112 55.7434 106.128 55.4234 106.096 55.1994C106.048 54.8154 105.568 54.0794 104.752 54.0794C104.576 54.0794 104.08 54.3034 103.776 54.5434C103.6 54.6714 103.6 54.7194 103.6 54.7674C103.6 54.8154 103.616 54.8794 103.648 54.9434C103.824 55.2314 103.872 55.3754 103.872 55.5514C103.872 55.8234 103.488 56.2874 103.04 56.2874C102.688 56.2874 102.32 55.9514 102.32 55.4714C102.32 55.2954 102.4 54.9754 103.024 54.5274C104.224 53.6474 105.12 53.3114 105.424 53.3114C106.144 53.3114 106.736 53.6954 107.088 54.3034C107.376 54.7514 107.36 55.2474 107.36 55.7114C107.36 56.3994 107.312 58.7194 107.312 59.6314C107.312 59.8234 107.44 59.9354 107.696 59.9354C107.872 59.9354 108.176 59.8554 108.512 59.6474ZM106.096 56.9594C105.504 57.2154 104.768 57.5354 104.48 57.7274C104.08 57.9834 103.824 58.2074 103.824 58.7674C103.824 59.1194 103.952 59.4714 104.208 59.7274C104.448 59.9674 104.736 59.9834 104.864 59.9834C105.104 59.9834 105.472 59.9034 105.76 59.6634C105.968 59.4554 106.032 59.3754 106.048 59.0074C106.08 58.3674 106.096 57.3274 106.096 56.9594ZM114.693 58.7514V55.6314C114.693 54.7514 114.597 54.5914 114.325 54.3194C113.989 53.9834 113.557 53.8394 113.029 53.8394C112.533 53.8394 112.101 53.9674 111.749 54.3194C111.189 54.8794 110.997 55.8554 110.997 56.8954C110.997 57.8554 111.221 58.8474 111.717 59.4234C112.197 59.9834 112.741 60.0954 113.173 60.0954C113.509 60.0954 113.925 60.0314 114.245 59.8234C114.613 59.5674 114.693 59.2794 114.693 58.7514ZM117.045 60.0474V60.5114C116.101 60.6074 115.301 60.7034 114.853 60.8154L114.773 60.7674C114.725 60.5754 114.693 60.3354 114.693 60.0634C113.765 60.6554 112.981 60.7994 112.453 60.7994C111.733 60.7994 110.933 60.4634 110.405 59.8554C109.861 59.2634 109.461 58.3674 109.461 57.2154C109.461 55.9034 109.989 54.7994 111.061 54.0314C111.829 53.5034 112.645 53.3114 113.397 53.3114C113.797 53.3114 114.293 53.3754 114.693 53.4714C114.693 51.1994 114.709 50.7834 114.645 50.6074C114.581 50.4474 114.213 50.2074 113.461 50.0474V49.6154C114.277 49.5834 115.477 49.3914 116.005 49.1834L116.085 49.2154C116.053 49.5674 116.005 50.1274 116.005 50.5594V59.0074C116.005 59.6154 116.037 59.7114 116.149 59.7914C116.293 59.9034 116.773 60.0314 117.045 60.0474ZM125.605 59.5354V59.9834C125.029 60.6074 124.357 60.7674 123.877 60.7674C123.125 60.7674 122.117 60.4314 122.117 58.8794V54.2874H121.189V53.9354C121.813 53.5994 122.629 52.7834 123.221 52.0154H123.637C123.557 52.4794 123.493 53.1354 123.477 53.5034H125.621C125.669 53.6794 125.621 54.1114 125.525 54.2874H123.429V58.8314C123.429 59.5674 123.845 59.9354 124.421 59.9354C124.821 59.9354 125.189 59.8554 125.605 59.5354ZM129.785 60.6074H126.361V60.1274C127.193 60.0474 127.353 59.9674 127.353 59.5194V51.4874C127.353 50.9434 127.321 50.7354 127.289 50.6074C127.241 50.4794 126.969 50.2074 126.345 50.0474V49.6474C127.017 49.5994 128.105 49.3754 128.697 49.1514L128.761 49.1834C128.729 49.4554 128.681 50.0794 128.681 50.5594V54.3354C129.337 53.6634 130.121 53.3114 130.905 53.3114C131.513 53.3114 132.089 53.5354 132.441 53.8874C132.969 54.4314 133.129 55.0714 133.129 55.8394V59.5034C133.129 60.0154 133.225 60.0794 134.105 60.1274V60.6074H130.601V60.1274C130.937 60.0954 131.225 60.0634 131.369 60.0314C131.753 59.9354 131.817 59.8554 131.817 58.3994V55.7434C131.817 55.3434 131.737 54.8954 131.369 54.5274C131.033 54.2074 130.601 54.1594 130.313 54.1594C129.945 54.1594 129.369 54.2394 128.985 54.5914C128.713 54.8794 128.681 54.9914 128.681 55.6794V59.5034C128.681 60.0474 128.921 60.0314 129.785 60.1274V60.6074ZM141.341 59.6474V60.0794C140.845 60.6394 140.141 60.8474 139.853 60.8474C139.469 60.8474 139.069 60.6394 138.877 59.9034C138.141 60.4794 137.501 60.8474 136.845 60.8474C136.093 60.8474 135.325 60.1114 135.325 59.1034C135.325 58.3354 135.741 57.9834 136.461 57.6154C137.165 57.2634 137.757 57.0074 138.941 56.5114C138.941 55.7434 138.957 55.4234 138.925 55.1994C138.877 54.8154 138.397 54.0794 137.581 54.0794C137.405 54.0794 136.909 54.3034 136.605 54.5434C136.429 54.6714 136.429 54.7194 136.429 54.7674C136.429 54.8154 136.445 54.8794 136.477 54.9434C136.653 55.2314 136.701 55.3754 136.701 55.5514C136.701 55.8234 136.317 56.2874 135.869 56.2874C135.517 56.2874 135.149 55.9514 135.149 55.4714C135.149 55.2954 135.229 54.9754 135.853 54.5274C137.053 53.6474 137.949 53.3114 138.253 53.3114C138.973 53.3114 139.565 53.6954 139.917 54.3034C140.205 54.7514 140.189 55.2474 140.189 55.7114C140.189 56.3994 140.141 58.7194 140.141 59.6314C140.141 59.8234 140.269 59.9354 140.525 59.9354C140.701 59.9354 141.005 59.8554 141.341 59.6474ZM138.925 56.9594C138.333 57.2154 137.597 57.5354 137.309 57.7274C136.909 57.9834 136.653 58.2074 136.653 58.7674C136.653 59.1194 136.781 59.4714 137.037 59.7274C137.277 59.9674 137.565 59.9834 137.693 59.9834C137.933 59.9834 138.301 59.9034 138.589 59.6634C138.797 59.4554 138.861 59.3754 138.877 59.0074C138.909 58.3674 138.925 57.3274 138.925 56.9594ZM146.402 59.5354V59.9834C145.826 60.6074 145.154 60.7674 144.674 60.7674C143.922 60.7674 142.914 60.4314 142.914 58.8794V54.2874H141.986V53.9354C142.61 53.5994 143.426 52.7834 144.018 52.0154H144.434C144.354 52.4794 144.29 53.1354 144.274 53.5034H146.418C146.466 53.6794 146.418 54.1114 146.322 54.2874H144.226V58.8314C144.226 59.5674 144.642 59.9354 145.218 59.9354C145.618 59.9354 145.986 59.8554 146.402 59.5354ZM153.988 60.6074H150.564V60.1274C151.444 60.0634 151.556 59.9674 151.556 59.4714V51.4874C151.556 50.9434 151.524 50.7674 151.476 50.6394C151.428 50.5114 151.14 50.2074 150.532 50.0474V49.6474C151.412 49.5834 152.212 49.3914 152.9 49.1514L152.964 49.1834C152.932 49.4554 152.884 50.1914 152.884 50.6554V56.9114C153.62 56.3834 154.468 55.5834 155.188 54.8474C155.444 54.5754 155.556 54.3994 155.556 54.2874C155.556 54.2074 155.492 54.1434 155.284 54.0954C155.028 54.0314 154.708 53.9994 154.484 53.9834V53.5034H157.86V53.9834C157.62 53.9994 157.508 54.0154 157.268 54.0634C156.852 54.1434 156.548 54.3514 156.196 54.6394C155.492 55.2314 154.836 55.8554 154.468 56.2234C154.436 56.2554 154.452 56.3194 154.468 56.3354C154.868 56.9114 156.436 58.8474 157.06 59.5514C157.428 59.9674 157.7 60.0794 158.452 60.1274V60.6074H154.772V60.1274C155.412 60.0794 155.604 60.0314 155.604 59.8874C155.604 59.8074 155.556 59.7594 155.412 59.5194C155.268 59.3114 154.084 57.7594 153.556 57.0874C153.524 57.0394 153.46 57.0234 153.412 57.0554C153.3 57.1194 152.964 57.3594 152.884 57.4394V59.5034C152.884 59.9354 152.964 60.0474 153.988 60.1274V60.6074ZM164.613 58.9274L164.901 59.2314C164.261 60.1914 163.317 60.7994 161.989 60.7994C160.933 60.7994 160.005 60.2874 159.493 59.5674C159.029 58.9114 158.773 58.0954 158.773 57.1514C158.773 55.6954 159.445 54.5434 160.325 53.8874C160.853 53.4874 161.605 53.3114 162.165 53.3114C164.037 53.3114 164.917 54.7514 164.917 55.9674C164.917 56.3514 164.869 56.5754 164.773 56.5914C164.341 56.6394 161.573 56.6394 160.245 56.6394C160.229 56.7674 160.229 56.8794 160.229 56.9114C160.229 58.0314 160.485 58.8154 160.981 59.3434C161.461 59.8394 162.021 59.9834 162.549 59.9834C163.221 59.9834 163.957 59.7434 164.613 58.9274ZM160.277 56.1594C161.541 56.1594 162.517 56.1434 163.077 56.1114C163.509 56.0794 163.557 55.9034 163.557 55.5354C163.557 54.9114 163.157 53.7914 162.005 53.7914C161.205 53.7914 160.421 54.4954 160.277 56.1594ZM172.019 58.9274L172.307 59.2314C171.667 60.1914 170.723 60.7994 169.395 60.7994C168.339 60.7994 167.411 60.2874 166.899 59.5674C166.435 58.9114 166.179 58.0954 166.179 57.1514C166.179 55.6954 166.851 54.5434 167.731 53.8874C168.259 53.4874 169.011 53.3114 169.571 53.3114C171.443 53.3114 172.323 54.7514 172.323 55.9674C172.323 56.3514 172.275 56.5754 172.179 56.5914C171.747 56.6394 168.979 56.6394 167.651 56.6394C167.635 56.7674 167.635 56.8794 167.635 56.9114C167.635 58.0314 167.891 58.8154 168.387 59.3434C168.867 59.8394 169.427 59.9834 169.955 59.9834C170.627 59.9834 171.363 59.7434 172.019 58.9274ZM167.683 56.1594C168.947 56.1594 169.923 56.1434 170.483 56.1114C170.915 56.0794 170.963 55.9034 170.963 55.5354C170.963 54.9114 170.563 53.7914 169.411 53.7914C168.611 53.7914 167.827 54.4954 167.683 56.1594ZM177.121 64.3194H173.121V63.8394C174.241 63.7914 174.305 63.6634 174.353 62.9594C174.369 62.5914 174.385 61.4074 174.385 60.6714V55.7914C174.385 55.1514 174.337 54.9594 174.273 54.8474C174.209 54.7194 173.809 54.4314 173.409 54.3194V53.9994C174.273 53.8554 175.169 53.4714 175.617 53.2314L175.761 53.3274C175.745 53.5674 175.681 53.9674 175.681 54.2554C176.577 53.5834 177.201 53.3754 177.985 53.3754C178.705 53.3754 179.425 53.7114 179.889 54.1754C180.497 54.7514 180.913 55.6634 180.913 56.8314C180.913 58.0474 180.497 58.9754 179.777 59.7114C178.961 60.5274 177.937 60.7994 177.137 60.7994C176.561 60.7994 176.113 60.7034 175.697 60.5914C175.697 61.2794 175.681 62.3354 175.713 62.9754C175.745 63.6634 175.809 63.7754 177.121 63.8394V64.3194ZM175.697 55.9034V58.4154C175.697 59.0714 175.777 59.2954 175.841 59.3914C176.193 59.9674 176.897 60.2554 177.409 60.2554C177.761 60.2554 178.369 60.1114 178.817 59.4554C179.233 58.8634 179.393 57.9834 179.393 57.1354C179.393 56.1754 179.217 55.4554 178.849 54.9434C178.433 54.3354 177.825 54.1434 177.361 54.1434C176.977 54.1434 176.625 54.1914 176.273 54.3994C175.793 54.6874 175.697 54.9594 175.697 55.9034ZM187.116 55.6154L186.636 55.7274C186.428 55.1034 186.108 54.5914 185.772 54.2554C185.5 53.9994 185.164 53.8234 184.684 53.8234C184.108 53.8234 183.66 54.2554 183.66 54.8954C183.66 55.5994 184.06 55.9514 185.084 56.4314C186.524 57.1194 187.116 57.6634 187.116 58.7194C187.116 59.9194 186.172 60.7994 184.78 60.7994C184.236 60.7994 183.756 60.6714 183.356 60.5754C183.196 60.5434 183.004 60.5434 182.732 60.5914C182.684 60.0314 182.444 58.8794 182.3 58.3034L182.764 58.1594C182.876 58.5594 183.196 59.3594 183.788 59.9034C184.092 60.1594 184.46 60.3034 184.86 60.3034C185.292 60.3034 185.9 60.0954 185.9 59.2154C185.9 58.5594 185.548 58.2554 184.3 57.6154C183.02 56.9914 182.524 56.3674 182.524 55.3434C182.524 54.2074 183.404 53.3114 184.86 53.3114C185.484 53.3114 185.852 53.4394 186.14 53.5514C186.268 53.5194 186.412 53.4554 186.492 53.3914H186.748C186.796 53.8554 186.94 54.8154 187.116 55.6154ZM191.005 53.9834V53.5034H194.493V53.9834C194.157 54.0154 193.965 54.0314 193.773 54.0634C193.485 54.1274 193.469 54.3034 193.549 54.5274C193.933 55.5514 195.213 58.7354 195.341 59.0074C195.805 57.7594 196.397 56.0794 196.845 54.7354C196.973 54.3674 196.909 54.1594 196.621 54.0954C196.317 54.0314 196.093 54.0154 195.741 53.9834V53.5034H198.621V53.9834C198.061 54.0954 197.789 54.1434 197.533 54.7674C197.197 55.5834 196.317 57.9194 195.581 59.9354C195.245 60.8314 194.989 61.6154 194.749 62.2874C194.157 63.9034 193.645 64.5434 192.829 64.5434C192.365 64.5434 191.917 64.1594 191.917 63.7114C191.917 63.1194 192.381 62.7034 192.717 62.7034C192.845 62.7034 193.005 62.8154 193.261 63.0234C193.357 63.1034 193.485 63.1994 193.613 63.1994C193.661 63.1994 193.821 63.1354 194.013 62.7034C194.285 62.0474 194.541 61.1834 194.669 60.7674C194.573 60.3834 192.653 55.6474 192.173 54.6234C191.917 54.0634 191.581 54.0634 191.005 53.9834ZM202.858 53.3114C203.914 53.3114 204.794 53.7114 205.418 54.3994C205.994 55.0394 206.362 55.9994 206.362 56.9914C206.362 58.1754 205.946 59.0714 205.29 59.7594C204.65 60.3994 203.786 60.7994 202.858 60.7994C201.818 60.7994 200.922 60.4474 200.282 59.7754C199.594 59.0714 199.226 58.0794 199.226 57.0394C199.226 55.6154 199.882 54.6074 200.794 53.9514C201.386 53.5354 202.122 53.3114 202.858 53.3114ZM202.922 60.2554C203.45 60.2554 203.946 60.0954 204.266 59.5994C204.618 59.0874 204.826 58.1594 204.826 57.1194C204.826 56.0794 204.602 55.1994 204.138 54.5754C203.77 54.1114 203.274 53.8234 202.698 53.8234C201.61 53.8234 200.762 54.6394 200.762 56.8154C200.762 57.8234 200.938 58.8154 201.482 59.5354C201.85 59.9994 202.362 60.2554 202.922 60.2554ZM215.119 60.0154V60.4634C214.351 60.5594 213.231 60.6874 212.863 60.7994L212.783 60.7194C212.767 60.4954 212.767 60.2394 212.767 59.8554C211.823 60.6074 211.119 60.7994 210.431 60.7994C209.407 60.7994 208.367 60.0634 208.367 58.5594V54.5914C208.367 54.4634 208.351 54.1594 207.407 53.9674V53.5034C208.287 53.5034 209.295 53.4714 209.775 53.3594C209.743 53.8394 209.695 54.1274 209.695 55.1994V58.6554C209.695 59.3594 210.335 59.9514 211.199 59.9514C211.743 59.9514 212.095 59.8394 212.367 59.6474C212.639 59.4394 212.767 59.2474 212.767 58.6394V54.6234C212.767 54.3994 212.735 54.1434 211.535 53.9674L211.615 53.5034C213.183 53.5034 213.727 53.4714 214.159 53.4074C214.111 53.6954 214.079 54.3514 214.079 55.9354V59.4714C214.079 59.6634 214.095 59.8074 214.303 59.8874C214.479 59.9514 214.879 59.9994 215.119 60.0154ZM225.474 58.9434L225.73 59.2474C225.01 60.3034 224.05 60.7994 222.93 60.7994C222.018 60.7994 221.106 60.4954 220.434 59.7434C219.874 59.1034 219.554 58.1594 219.554 57.1514C219.554 56.1114 219.954 54.9914 221.026 54.1114C221.634 53.6154 222.466 53.3114 223.394 53.3114C224.978 53.3114 225.57 54.0154 225.57 54.4474C225.57 54.8314 225.234 55.2474 224.818 55.2474C224.594 55.2474 224.402 55.1194 224.178 54.8634C223.954 54.6074 223.778 54.1914 223.586 54.0154C223.458 53.8554 223.266 53.8554 222.978 53.8554C222.61 53.8554 222.306 53.9514 221.954 54.2234C221.41 54.6554 221.058 55.5994 221.058 56.7994C221.058 57.8554 221.346 58.6394 221.714 59.1354C222.194 59.7594 222.818 59.9674 223.33 59.9674C224.098 59.9674 224.786 59.7914 225.474 58.9434ZM230.405 53.3114C231.461 53.3114 232.341 53.7114 232.965 54.3994C233.541 55.0394 233.909 55.9994 233.909 56.9914C233.909 58.1754 233.493 59.0714 232.837 59.7594C232.197 60.3994 231.333 60.7994 230.405 60.7994C229.365 60.7994 228.469 60.4474 227.829 59.7754C227.141 59.0714 226.773 58.0794 226.773 57.0394C226.773 55.6154 227.429 54.6074 228.341 53.9514C228.933 53.5354 229.669 53.3114 230.405 53.3114ZM230.469 60.2554C230.997 60.2554 231.493 60.0954 231.813 59.5994C232.165 59.0874 232.373 58.1594 232.373 57.1194C232.373 56.0794 232.149 55.1994 231.685 54.5754C231.317 54.1114 230.821 53.8234 230.245 53.8234C229.157 53.8234 228.309 54.6394 228.309 56.8154C228.309 57.8234 228.485 58.8154 229.029 59.5354C229.397 59.9994 229.909 60.2554 230.469 60.2554ZM238.41 60.6074H234.938V60.1274C235.898 60.0794 236.042 59.9674 236.042 59.4074V55.7434C236.042 55.4554 236.026 54.9914 235.994 54.8794C235.962 54.7514 235.69 54.5114 235.162 54.3354V53.9994C235.882 53.8714 236.81 53.5354 237.29 53.3114L237.402 53.3754C237.386 53.6154 237.354 54.1274 237.354 54.3994C238.074 53.6634 238.842 53.3114 239.658 53.3114C240.186 53.3114 240.746 53.5034 241.13 53.8874C241.658 54.3994 241.818 55.1354 241.818 55.8714V59.4074C241.818 59.9834 241.962 60.0634 242.794 60.1274V60.6074H239.29V60.1274C240.234 60.0314 240.41 60.0474 240.474 59.5354C240.49 59.3594 240.506 59.1194 240.506 58.7834V55.7914C240.506 55.3114 240.442 54.8954 240.074 54.5274C239.754 54.2074 239.258 54.1594 238.954 54.1594C238.57 54.1594 238.01 54.3514 237.722 54.6234C237.418 54.9274 237.354 55.0394 237.354 55.7754V59.4074C237.354 59.9834 237.498 60.0634 238.41 60.1274V60.6074ZM247.067 60.6074H243.595V60.1274C244.555 60.0794 244.699 59.9674 244.699 59.4074V55.7434C244.699 55.4554 244.683 54.9914 244.651 54.8794C244.619 54.7514 244.347 54.5114 243.819 54.3354V53.9994C244.539 53.8714 245.467 53.5354 245.947 53.3114L246.059 53.3754C246.043 53.6154 246.011 54.1274 246.011 54.3994C246.731 53.6634 247.499 53.3114 248.315 53.3114C248.843 53.3114 249.403 53.5034 249.787 53.8874C250.315 54.3994 250.475 55.1354 250.475 55.8714V59.4074C250.475 59.9834 250.619 60.0634 251.451 60.1274V60.6074H247.947V60.1274C248.891 60.0314 249.067 60.0474 249.131 59.5354C249.147 59.3594 249.163 59.1194 249.163 58.7834V55.7914C249.163 55.3114 249.099 54.8954 248.731 54.5274C248.411 54.2074 247.915 54.1594 247.611 54.1594C247.227 54.1594 246.667 54.3514 246.379 54.6234C246.075 54.9274 246.011 55.0394 246.011 55.7754V59.4074C246.011 59.9834 246.155 60.0634 247.067 60.1274V60.6074ZM258.426 58.9274L258.714 59.2314C258.074 60.1914 257.13 60.7994 255.802 60.7994C254.746 60.7994 253.818 60.2874 253.306 59.5674C252.842 58.9114 252.586 58.0954 252.586 57.1514C252.586 55.6954 253.258 54.5434 254.138 53.8874C254.666 53.4874 255.418 53.3114 255.978 53.3114C257.85 53.3114 258.73 54.7514 258.73 55.9674C258.73 56.3514 258.682 56.5754 258.586 56.5914C258.154 56.6394 255.386 56.6394 254.058 56.6394C254.042 56.7674 254.042 56.8794 254.042 56.9114C254.042 58.0314 254.298 58.8154 254.794 59.3434C255.274 59.8394 255.834 59.9834 256.362 59.9834C257.034 59.9834 257.77 59.7434 258.426 58.9274ZM254.09 56.1594C255.354 56.1594 256.33 56.1434 256.89 56.1114C257.322 56.0794 257.37 55.9034 257.37 55.5354C257.37 54.9114 256.97 53.7914 255.818 53.7914C255.018 53.7914 254.234 54.4954 254.09 56.1594ZM265.912 58.9434L266.168 59.2474C265.448 60.3034 264.488 60.7994 263.368 60.7994C262.456 60.7994 261.544 60.4954 260.872 59.7434C260.312 59.1034 259.992 58.1594 259.992 57.1514C259.992 56.1114 260.392 54.9914 261.464 54.1114C262.072 53.6154 262.904 53.3114 263.832 53.3114C265.416 53.3114 266.008 54.0154 266.008 54.4474C266.008 54.8314 265.672 55.2474 265.256 55.2474C265.032 55.2474 264.84 55.1194 264.616 54.8634C264.392 54.6074 264.216 54.1914 264.024 54.0154C263.896 53.8554 263.704 53.8554 263.416 53.8554C263.048 53.8554 262.744 53.9514 262.392 54.2234C261.848 54.6554 261.496 55.5994 261.496 56.7994C261.496 57.8554 261.784 58.6394 262.152 59.1354C262.632 59.7594 263.256 59.9674 263.768 59.9674C264.536 59.9674 265.224 59.7914 265.912 58.9434ZM271.511 59.5354V59.9834C270.935 60.6074 270.263 60.7674 269.783 60.7674C269.031 60.7674 268.023 60.4314 268.023 58.8794V54.2874H267.095V53.9354C267.719 53.5994 268.535 52.7834 269.127 52.0154H269.543C269.463 52.4794 269.399 53.1354 269.383 53.5034H271.527C271.575 53.6794 271.527 54.1114 271.431 54.2874H269.335V58.8314C269.335 59.5674 269.751 59.9354 270.327 59.9354C270.727 59.9354 271.095 59.8554 271.511 59.5354ZM278.238 58.9274L278.526 59.2314C277.886 60.1914 276.942 60.7994 275.614 60.7994C274.558 60.7994 273.63 60.2874 273.118 59.5674C272.654 58.9114 272.398 58.0954 272.398 57.1514C272.398 55.6954 273.07 54.5434 273.95 53.8874C274.478 53.4874 275.23 53.3114 275.79 53.3114C277.662 53.3114 278.542 54.7514 278.542 55.9674C278.542 56.3514 278.494 56.5754 278.398 56.5914C277.966 56.6394 275.198 56.6394 273.87 56.6394C273.854 56.7674 273.854 56.8794 273.854 56.9114C273.854 58.0314 274.11 58.8154 274.606 59.3434C275.086 59.8394 275.646 59.9834 276.174 59.9834C276.846 59.9834 277.582 59.7434 278.238 58.9274ZM273.902 56.1594C275.166 56.1594 276.142 56.1434 276.702 56.1114C277.134 56.0794 277.182 55.9034 277.182 55.5354C277.182 54.9114 276.782 53.7914 275.63 53.7914C274.83 53.7914 274.046 54.4954 273.902 56.1594ZM285.036 58.7514V55.6314C285.036 54.7514 284.94 54.5914 284.668 54.3194C284.332 53.9834 283.9 53.8394 283.372 53.8394C282.876 53.8394 282.444 53.9674 282.092 54.3194C281.532 54.8794 281.34 55.8554 281.34 56.8954C281.34 57.8554 281.564 58.8474 282.06 59.4234C282.54 59.9834 283.084 60.0954 283.516 60.0954C283.852 60.0954 284.268 60.0314 284.588 59.8234C284.956 59.5674 285.036 59.2794 285.036 58.7514ZM287.388 60.0474V60.5114C286.444 60.6074 285.644 60.7034 285.196 60.8154L285.116 60.7674C285.068 60.5754 285.036 60.3354 285.036 60.0634C284.108 60.6554 283.324 60.7994 282.796 60.7994C282.076 60.7994 281.276 60.4634 280.748 59.8554C280.204 59.2634 279.804 58.3674 279.804 57.2154C279.804 55.9034 280.332 54.7994 281.404 54.0314C282.172 53.5034 282.988 53.3114 283.74 53.3114C284.14 53.3114 284.636 53.3754 285.036 53.4714C285.036 51.1994 285.052 50.7834 284.988 50.6074C284.924 50.4474 284.556 50.2074 283.804 50.0474V49.6154C284.62 49.5834 285.82 49.3914 286.348 49.1834L286.428 49.2154C286.396 49.5674 286.348 50.1274 286.348 50.5594V59.0074C286.348 59.6154 286.38 59.7114 286.492 59.7914C286.636 59.9034 287.116 60.0314 287.388 60.0474Z" fill="#5EA7C7"/>
</svg>
